<?xml version="1.0" standalone="no"?>
<!DOCTYPE svg PUBLIC "-//W3C//DTD SVG 20010904//EN"
 "http://www.w3.org/TR/2001/REC-SVG-20010904/DTD/svg10.dtd">
<svg version="1.0" xmlns="http://www.w3.org/2000/svg"
 width="401.000000pt" height="401.000000pt" viewBox="0 0 401.000000 401.000000"
 preserveAspectRatio="xMidYMid meet">
<metadata>
Created by potrace 1.11, written by Peter Selinger 2001-2013
</metadata>
<g transform="translate(0.000000,401.000000) scale(0.100000,-0.100000)"
fill="#000000" stroke="none">
<path d="M1715 3989 c-446 -67 -842 -271 -1150 -591 -45 -45 -96 -103 -115
-128 -19 -25 -37 -47 -41 -50 -19 -16 -138 -206 -183 -293 -93 -181 -172 -416
-201 -605 -4 -23 -9 -54 -11 -70 -3 -15 -6 -106 -8 -202 -4 -229 6 -329 55
-530 190 -770 828 -1359 1620 -1494 176 -30 497 -28 664 4 28 5 61 12 75 14
164 31 377 109 540 198 398 217 725 579 893 988 34 82 84 228 91 266 2 11 9
37 14 59 6 22 13 56 16 75 3 19 8 46 10 59 21 101 28 425 13 546 -23 180 -73
381 -123 492 -8 17 -14 34 -14 37 0 4 -20 49 -45 101 -161 340 -436 648 -758
847 -243 151 -545 255 -832 287 -136 15 -378 11 -510 -10z"/>
</g>
</svg>
